<?xml version="1.0" encoding="utf-8"?>
<!-- Generator: Adobe Illustrator 22.1.0, SVG Export Plug-In . SVG Version: 6.00 Build 0)  -->
<svg version="1.1" id="Layer_1" xmlns="http://www.w3.org/2000/svg" xmlns:xlink="http://www.w3.org/1999/xlink" x="0px" y="0px"
	 viewBox="0 0 95.3 172.2" style="enable-background:new 0 0 95.3 172.2;" xml:space="preserve">
<style type="text/css">
	.st0{fill:#B295C6;}
	.st1{fill:none;stroke:#B295C6;stroke-width:1.5;}
	.st2{stroke:#B295C6;}
	.st3{fill:#B295C6;stroke:#B295C6;}
	.st4{fill:none;stroke:#B295C6;}
</style>
<g>
	<path class="st0" d="M3.2,39.1c0,0,1.8,5.9,4.6,6.3c2.8,0.3,5.1-1.7,5.1-1.7l-1.8-2.4c0,0-3.3-0.5-4-1.2C6.5,39.3,4.7,38.8,4,39"/>
	<path class="st0" d="M20.6,36.1c0,0,0.3,6.2-2.2,7.5c-2.5,1.2-5.4,0.1-5.4,0.1l0.9-2.9c0,0,3-1.6,3.4-2.5c0.4-0.9,1.8-1.9,2.6-2.1"
		/>
	<path class="st0" d="M13.2,32.2c0,0,3.8,4.9,2.5,7.4c-1.3,2.5-4.3,3.3-4.3,3.3l-1-2.8c0,0,1.5-3,1.3-4c-0.2-0.9,0.4-2.7,0.9-3.2"/>
	<path class="st0" d="M7.8,34.4c0,0-2,5.9,0.1,7.8c2.1,1.9,5.2,1.6,5.2,1.6l0-3c0,0-2.4-2.4-2.6-3.3c-0.1-1-1.2-2.4-2-2.7"/>
	<path class="st0" d="M0,13.4c2.7-0.1,3.9-1.9,3.9-1.9L2,9.2c0,0-1.2,0.2-2-0.3"/>
	<path class="st0" d="M11.1,3.5c0,0,0.6,6.2-1.8,7.6c-2.4,1.4-5.4,0.4-5.4,0.4l0.7-2.9c0,0,2.9-1.8,3.2-2.7c0.3-0.9,1.7-2,2.5-2.2"
		/>
	<path class="st0" d="M3.5,0c0,0,4.1,4.7,2.9,7.2c-1.2,2.5-4.1,3.5-4.1,3.5L1.2,7.9c0,0,1.3-3.1,1.1-4C2,2.9,2.5,1.2,3,0.6"/>
	<path class="st0" d="M0,11c2.5,1.5,4.1,0.6,4.1,0.6l-0.2-3c0,0-2.6-2.2-2.7-3.2C0.9,4.5,0.5,4.3,0,3.6"/>
	<path class="st0" d="M8.7,51.8c0,0,1.8,5.9,4.6,6.3c2.8,0.3,5.1-1.7,5.1-1.7L16.7,54c0,0-3.3-0.5-4-1.2c-0.7-0.7-2.4-1.2-3.2-1.1"
		/>
	<path class="st0" d="M26.1,48.8c0,0,0.3,6.2-2.2,7.5c-2.5,1.2-5.4,0.1-5.4,0.1l0.9-2.9c0,0,3-1.6,3.4-2.5c0.4-0.9,1.8-1.9,2.6-2.1"
		/>
	<path class="st0" d="M18.7,44.9c0,0,3.8,4.9,2.5,7.4c-1.3,2.5-4.3,3.3-4.3,3.3l-1-2.8c0,0,1.5-3,1.3-4c-0.2-0.9,0.4-2.7,0.9-3.2"/>
	<path class="st0" d="M13.4,47.1c0,0-2,5.9,0.1,7.8c2.1,1.9,5.2,1.6,5.2,1.6l0-3c0,0-2.4-2.4-2.6-3.3c-0.1-1-1.2-2.4-2-2.7"/>
	<path class="st0" d="M0,21.4c0,0,1.3,4.4,4,4.7c2.8,0.3,5.1-1.7,5.1-1.7L7.4,22c0,0-3.3-0.5-4-1.2c-0.7-0.7-2.6-1.3-3.4-1.2"/>
	<path class="st0" d="M30.3,67.1c0,0,0.3,6.2-2.2,7.5c-2.5,1.2-5.4,0.1-5.4,0.1l0.9-2.9c0,0,3-1.6,3.4-2.5c0.4-0.9,1.8-1.9,2.6-2.1"
		/>
	<path class="st0" d="M9.5,12.9c0,0,3.8,4.9,2.5,7.4c-1.3,2.5-4.3,3.3-4.3,3.3l-1-2.8c0,0,1.5-3,1.3-4c-0.2-0.9,0.4-2.7,0.9-3.2"/>
	<path class="st0" d="M4.1,15.1c0,0-2,5.9,0.1,7.8c2.1,1.9,5.2,1.6,5.2,1.6l0-3c0,0-2.4-2.4-2.6-3.3c-0.1-1-1.2-2.4-2-2.7"/>
	<path class="st0" d="M30.6,129.8c0,0,1.8,5.9,4.6,6.3c2.8,0.3,5.1-1.7,5.1-1.7l-1.8-2.4c0,0-3.3-0.5-4-1.2
		c-0.7-0.7-2.4-1.2-3.2-1.1"/>
	<path class="st0" d="M48,126.8c0,0,0.3,6.2-2.2,7.5c-2.5,1.2-5.4,0.1-5.4,0.1l0.9-2.9c0,0,3-1.6,3.4-2.5c0.4-0.9,1.8-1.9,2.6-2.1"
		/>
	<path class="st0" d="M40.6,122.9c0,0,3.8,4.9,2.5,7.4c-1.3,2.5-4.3,3.3-4.3,3.3l-1-2.8c0,0,1.5-3,1.3-4c-0.2-0.9,0.4-2.7,0.9-3.2"
		/>
	<path class="st0" d="M35.3,125.1c0,0-2,5.9,0.1,7.8c2.1,1.9,5.2,1.6,5.2,1.6l0-3c0,0-2.4-2.4-2.6-3.3c-0.1-1-1.2-2.4-2-2.7"/>
	<path class="st0" d="M15.9,99.8c0,0,2.8,5.5,5.6,5.4c2.8-0.2,4.8-2.6,4.8-2.6l-2.2-2.1c0,0-3.4,0.1-4.2-0.5
		c-0.8-0.6-2.6-0.8-3.3-0.5"/>
	<path class="st0" d="M34.2,97.3c0,0,0.3,6.2-2.2,7.5c-2.5,1.2-5.4,0.1-5.4,0.1l0.9-2.9c0,0,3-1.6,3.4-2.5c0.4-0.9,1.8-1.9,2.6-2.1"
		/>
	<path class="st0" d="M25.3,84.6c0,0,3.8,4.9,2.5,7.4c-1.3,2.5-4.3,3.2-4.3,3.2l-1-2.8c0,0,1.5-3,1.3-4c-0.2-0.9,0.4-2.7,0.9-3.2"/>
	<path class="st0" d="M19.9,86.8c0,0-2,5.9,0.1,7.8c2.1,1.9,5.2,1.6,5.2,1.6l0-3c0,0-2.4-2.4-2.6-3.3c-0.1-1-1.2-2.4-2-2.7"/>
	<path class="st0" d="M15.3,93.9c0,0,1.8,5.9,4.6,6.3c2.8,0.3,5.1-1.7,5.1-1.7l-1.8-2.4c0,0-3.3-0.5-4-1.2c-0.7-0.7-2.4-1.2-3.2-1.1
		"/>
	<path class="st0" d="M30.7,90.4c0,0,1.8,5.9-0.3,7.8c-2.1,1.8-5.2,1.5-5.2,1.5l0.1-3c0,0,2.5-2.3,2.6-3.3c0.2-1,1.3-2.3,2-2.7"/>
	<path class="st0" d="M25.7,119.3c0,0,1.8,5.9,4.6,6.3c2.8,0.3,5.1-1.7,5.1-1.7l-1.8-2.4c0,0-3.3-0.5-4-1.2
		c-0.7-0.7-2.4-1.2-3.2-1.1"/>
	<path class="st0" d="M43.2,116.3c0,0,0.3,6.2-2.2,7.5c-2.5,1.2-5.4,0.1-5.4,0.1l0.9-2.9c0,0,3-1.6,3.4-2.5c0.4-0.9,1.8-1.9,2.6-2.1
		"/>
	<path class="st0" d="M27.4,113.9c0,0,0.4,6.2,3,7.2c2.6,1,5.4-0.4,5.4-0.4l-1.2-2.8c0,0-3.1-1.3-3.6-2.1c-0.5-0.8-2-1.7-2.8-1.8"/>
	<path class="st0" d="M38.7,111.5c0,0,2.7,5.6,0.9,7.7c-1.8,2.1-4.9,2.3-4.9,2.3l-0.4-3c0,0,2.1-2.7,2.1-3.6c0-1,0.9-2.5,1.6-3"/>
	<path class="st0" d="M23.6,63.8c0,0,3.8,4.9,2.5,7.4c-1.3,2.5-4.3,3.3-4.3,3.3l-1-2.8c0,0,1.5-3,1.3-4c-0.2-0.9,0.4-2.7,0.9-3.2"/>
	<path class="st0" d="M18.2,66c0,0-2,5.9,0.1,7.8c2.1,1.9,5.2,1.6,5.2,1.6l0-3c0,0-2.4-2.4-2.6-3.3c-0.1-1-1.2-2.4-2-2.7"/>
	<path class="st0" d="M33.4,111.1c0,0,3.8,4.9,2.5,7.4c-1.3,2.5-4.3,3.3-4.3,3.3l-1-2.8c0,0,1.5-3,1.3-4c-0.2-0.9,0.4-2.7,0.9-3.2"
		/>
	<path class="st0" d="M15.3,73.7c0,0,2.8,5.5,5.6,5.4c2.8-0.2,4.8-2.6,4.8-2.6l-2.2-2.1c0,0-3.4,0.1-4.2-0.5
		c-0.8-0.6-2.6-0.8-3.3-0.5"/>
	<path class="st0" d="M33.6,71.1c0,0,0.3,6.2-2.2,7.5c-2.5,1.2-5.4,0.1-5.4,0.1l0.9-2.9c0,0,3-1.6,3.4-2.5c0.4-0.9,1.8-1.9,2.6-2.1"
		/>
	<path class="st1" d="M58.3,85.2c-0.9,1.5-4,12-5.4,19.1c-1.4,7.1-5.5,35.8-7.3,44c-2.2,9.8-2,18.5,0.5,21.4
		c2.1,2.5,3.5,2.5,3.5,2.5s-3.8-11.6-5.1-18.2c-1.3-6.6-9.5-38.8-9.5-38.8s1.1-4.4-2.4-21.7c-3-15.1-9.9-15.4-12.4-28
		c-2.5-12.7-3.3-16.6-4-18c-0.6-1.2-3.9-8.2-5-10.7c-0.2-0.5-0.4-1.5-0.4-1.5C11.9,22.9,2.1,6.3,2.1,6.3"/>
	<path class="st1" d="M48.8,171.2c-0.8-0.9-3.2-10.2-4.2-12.5c-1.4-3.1-0.5-3.9-3.9-8.1c-4.3-5.4-4-6.6-10.2-18.2
		C24.2,120.8,8,106.5,8,106.5"/>
	<path class="st0" d="M42.5,65.5c0.8,9.4,0.4,18.8,2,28.1c0.6,11.9,1.2,23.7,1.2,35.6c0,0.3,0.2,0.6,0.5,0.6c0.3,0,0.5-0.2,0.6-0.5
		c0-12-0.7-23.9-1.2-35.8c-1.7-9.3-1.5-17.7-2.4-27.1l0.3-1c0-0.3-0.8-0.1-1-0.1C42.2,65.3,42.4,65.2,42.5,65.5L42.5,65.5z"/>
	<path class="st0" d="M43.8,133.9c-0.2,5.5,0.4,10.9-0.1,16.4c0,0.3,0.3,1.7,0.6,1.7c0.3,0-0.6-1.4-0.6-1.7
		c0.5-5.5,0.9-10.8,1.2-16.3l0,0c0-0.3-0.2-0.6-0.5-0.6C44.1,133.4,43.8,133.6,43.8,133.9L43.8,133.9z"/>
	<path class="st1" d="M24.9,97.8c0,0,4.3,12.7,8.1,21.4c3.8,8.7,7.4,15.2,7.4,15.2"/>
	<path class="st0" d="M46.5,87.1c0,0,0.3,6.2-2.2,7.5c-2.5,1.2-5.4,0.1-5.4,0.1l0.9-2.9c0,0,3-1.6,3.4-2.5c0.4-0.9,1.8-1.9,2.6-2.1"
		/>
	<path class="st0" d="M33.7,89.7c0,0,1.8,5.9,4.6,6.3c2.8,0.3,5.1-1.7,5.1-1.7l-1.8-2.4c0,0-3.3-0.5-4-1.2c-0.7-0.7-2.4-1.2-3.2-1.1
		"/>
	<path class="st0" d="M38.4,84.9c0,0-2,5.9,0.1,7.8c2.1,1.9,5.2,1.6,5.2,1.6l0-3c0,0-2.4-2.4-2.6-3.3c-0.1-1-1.2-2.4-2-2.7"/>
	<path class="st0" d="M46.6,103c0,0,2.5,5.7,0.6,7.8c-1.9,2.1-5,2.1-5,2.1l-0.2-3c0,0,2.2-2.6,2.2-3.5c0-1,1-2.5,1.7-2.9"/>
	<path class="st0" d="M36.2,103.1c0,0,0,6.2,2.6,7.4c2.6,1.1,5.4-0.1,5.4-0.1l-1-2.8c0,0-3-1.5-3.5-2.3c-0.4-0.9-1.9-1.9-2.7-2"/>
	<path class="st0" d="M42.2,98.7c0,0-3.6,5-2.2,7.5c1.4,2.4,4.5,3.1,4.5,3.1l0.8-2.9c0,0-1.6-3-1.5-3.9c0.2-1-0.5-2.6-1.1-3.2"/>
	<path class="st1" d="M40.5,94.3c0,0,2.1,10.1,1.9,12.3c-0.2,2.1,1.7,30,1.7,35.4c0.1,5.4-0.5,8.4-0.5,8.4"/>
	<path class="st0" d="M54.9,52.5c0,0,1.2,5.1,3.5,5.5c2.3,0.4,4.4-1.2,4.4-1.2l-1.4-2.1c0,0-2.8-0.6-3.3-1.2
		c-0.5-0.6-1.9-1.1-2.6-1.1"/>
	<path class="st0" d="M43.9,78.2c0,0,1.8,5.9,4.6,6.3c2.8,0.3,5.1-1.7,5.1-1.7l-1.8-2.4c0,0-3.3-0.5-4-1.2c-0.7-0.7-2.4-1.2-3.2-1.1
		"/>
	<path class="st0" d="M54,71.3c0,0,3.8,4.9,2.5,7.4c-1.3,2.5-4.3,3.2-4.3,3.2l-1-2.8c0,0,1.5-3,1.3-4c-0.2-0.9,0.4-2.7,0.9-3.2"/>
	<path class="st0" d="M48.6,73.5c0,0-2,5.9,0.1,7.8c2.1,1.9,5.2,1.6,5.2,1.6l0-3c0,0-2.4-2.4-2.6-3.3c-0.1-1-1.2-2.4-2-2.7"/>
	<path class="st0" d="M65.4,41.2c0,0,0.2,5.2-1.9,6.3c-2.1,1-4.5,0.1-4.5,0.1l0.7-2.4c0,0,2.5-1.3,2.8-2.1c0.3-0.7,1.5-1.6,2.2-1.8"
		/>
	<path class="st0" d="M59.7,38.5c0,0,3.2,4.1,2.1,6.2c-1.1,2.1-3.6,2.7-3.6,2.7L57.4,45c0,0,1.3-2.6,1.1-3.3
		c-0.2-0.8,0.3-2.2,0.8-2.7"/>
	<path class="st0" d="M55.2,40.3c0,0-1.6,4.9,0.1,6.5c1.7,1.6,4.3,1.4,4.3,1.4l0-2.5c0,0-2-2-2.1-2.8c-0.1-0.8-1-2-1.6-2.3"/>
	<path class="st0" d="M56.1,46.8c0,0-0.7,5.2,1.3,6.4c2,1.2,4.5,0.5,4.5,0.5l-0.5-2.5c0,0-2.4-1.6-2.6-2.3c-0.3-0.8-1.4-1.8-2-1.9"
		/>
	<path class="st0" d="M72,71.4c0,0,0.2,5.2-1.9,6.3c-2.1,1-4.5,0.1-4.5,0.1l0.7-2.4c0,0,2.5-1.3,2.8-2.1c0.3-0.7,1.5-1.6,2.2-1.8"/>
	<path class="st0" d="M64.3,57.3c0,0,3.2,4.1,2.1,6.2c-1.1,2.1-3.6,2.7-3.6,2.7L62,63.9c0,0,1.3-2.6,1.1-3.3
		c-0.2-0.8,0.3-2.2,0.8-2.7"/>
	<path class="st0" d="M60.2,57.9c0,0-1.6,5,0.1,6.5c1.7,1.6,4.3,1.4,4.3,1.4l0-2.5c0,0-2-2-2.1-2.8c-0.1-0.8-1-2-1.6-2.3"/>
	<path class="st0" d="M56.4,64.2c0,0,2.4,4.6,4.7,4.5c2.3-0.1,4-2.2,4-2.2l-1.8-1.7c0,0-2.8,0.1-3.5-0.4c-0.7-0.5-2.1-0.7-2.8-0.4"
		/>
	<path class="st0" d="M70.2,59.8c0,0,0.2,5.2-1.9,6.3c-2.1,1-4.5,0.1-4.5,0.1l0.7-2.4c0,0,2.5-1.3,2.8-2.1c0.3-0.7,1.5-1.6,2.2-1.8"
		/>
	<path class="st0" d="M62,69.8c0,0-1.6,4.9,0.1,6.5c1.7,1.6,4.3,1.4,4.3,1.4l0-2.5c0,0-2-2-2.1-2.8c-0.1-0.8-1-2-1.6-2.3"/>
	<path class="st0" d="M67.1,67.6c0,0,3.2,4.1,2.1,6.2c-1.1,2.1-3.6,2.7-3.6,2.7l-0.8-2.4c0,0,1.3-2.6,1.1-3.3
		c-0.2-0.8,0.3-2.2,0.8-2.7"/>
	<path class="st0" d="M71.1,84.5c0,0,3.2,4.1,2.1,6.2c-1.1,2.1-3.6,2.7-3.6,2.7l-0.8-2.4c0,0,1.3-2.6,1.1-3.3
		c-0.2-0.8,0.3-2.2,0.8-2.7"/>
	<path class="st0" d="M66.3,87.8c0,0-1.6,4.9,0.1,6.5c1.7,1.6,4.3,1.4,4.3,1.4l0-2.5c0,0-2-2-2.2-2.8c-0.1-0.8-1-2-1.6-2.3"/>
	<path class="st0" d="M60,81.9c0,0,2.4,4.6,4.7,4.5c2.3-0.1,4-2.2,4-2.2L67,82.5c0,0-2.8,0.1-3.5-0.4c-0.7-0.5-2.1-0.7-2.8-0.4"/>
	<path class="st0" d="M73.9,77.6c0,0,0.2,5.2-1.9,6.3c-2.1,1-4.5,0.1-4.5,0.1l0.7-2.4c0,0,2.5-1.3,2.8-2.1c0.3-0.7,1.5-1.6,2.2-1.8"
		/>
	<path class="st0" d="M61,77.9c0,0,1.2,5.1,3.5,5.5c2.3,0.4,4.4-1.2,4.4-1.2l-1.4-2.1c0,0-2.8-0.6-3.3-1.2c-0.5-0.6-1.9-1.1-2.6-1.1
		"/>
	<path class="st0" d="M66.8,50.7c0,0,0.2,5.2-1.9,6.3c-2.1,1-4.5,0.1-4.5,0.1l0.7-2.4c0,0,2.5-1.3,2.8-2.1c0.3-0.7,1.5-1.6,2.2-1.8"
		/>
	<path class="st0" d="M36.7,11.4c0,0,0.3,6.2-2.2,7.5C31.9,20.1,29,19,29,19l0.9-2.9c0,0,3-1.6,3.4-2.5c0.4-0.9,1.8-1.9,2.6-2.1"/>
	<path class="st0" d="M30,8.1c0,0,3.8,4.9,2.5,7.4c-1.3,2.5-4.3,3.3-4.3,3.3l-1-2.8c0,0,1.5-3,1.3-4c-0.2-0.9,0.4-2.7,0.9-3.2"/>
	<path class="st0" d="M24.6,10.4c0,0-2,5.9,0.1,7.8c2.1,1.9,5.2,1.6,5.2,1.6l0-3c0,0-2.4-2.4-2.6-3.3c-0.1-1-1.2-2.4-2-2.7"/>
	<path class="st0" d="M39,15.7c0,0,0.3,6.2-2.2,7.5c-2.5,1.2-5.4,0.1-5.4,0.1l0.9-2.9c0,0,3-1.6,3.4-2.5c0.4-0.9,1.8-1.9,2.6-2.1"/>
	<path class="st0" d="M24.5,20.5c0,0,2.2,5.8,4.9,6c2.8,0.2,5-2,5-2l-1.9-2.3c0,0-3.4-0.3-4.1-1c-0.7-0.7-2.4-1.1-3.2-0.9"/>
	<path class="st1" d="M59.8,47.9c0,0,10,37.3,8.9,43.1c-1,5.8,0.8,1.5,0.8,1.5s6.1,16.5,4.2,22.6"/>
	<path class="st0" d="M49.8,44.5c0,0,0.3,6.2-2.2,7.5c-2.5,1.2-5.4,0.1-5.4,0.1l0.9-2.9c0,0,3-1.6,3.4-2.5c0.4-0.9,1.8-1.9,2.6-2.1"
		/>
	<path class="st0" d="M34.7,48.2c0,0,1.1,6.1,3.8,6.8c2.7,0.7,5.3-1.1,5.3-1.1l-1.5-2.6c0,0-3.3-0.9-3.8-1.7c-0.6-0.8-2.2-1.5-3-1.4
		"/>
	<path class="st0" d="M52.1,48.4c0,0,0.3,6.2-2.2,7.5c-2.5,1.2-5.4,0.1-5.4,0.1l0.9-2.9c0,0,3-1.6,3.4-2.5c0.4-0.9,1.8-1.9,2.6-2.1"
		/>
	<path class="st0" d="M52.7,57.5c0,0,0.3,6.2-2.2,7.5C47.9,66.2,45,65,45,65l0.9-2.9c0,0,3-1.6,3.4-2.5c0.4-0.9,1.8-1.9,2.6-2.1"/>
	<path class="st0" d="M37.7,64.1c0,0,2.8,5.5,5.6,5.4c2.8-0.1,4.8-2.6,4.8-2.6L46,64.8c0,0-3.4,0.1-4.2-0.5
		c-0.8-0.6-2.6-0.8-3.3-0.5"/>
	<path class="st0" d="M48.7,38c0,0,0.3,6.2-2.2,7.5c-2.5,1.2-5.4,0.1-5.4,0.1l0.9-2.9c0,0,3-1.6,3.4-2.5c0.4-0.9,1.8-1.9,2.6-2.1"/>
	<path class="st0" d="M45,34.5c0,0,0.3,6.2-2.2,7.5c-2.5,1.2-5.4,0.1-5.4,0.1l0.9-2.9c0,0,3-1.6,3.4-2.5c0.4-0.9,1.8-1.9,2.6-2.1"/>
	<path class="st0" d="M38.3,31.3c0,0,3.8,4.9,2.5,7.4c-1.3,2.5-4.3,3.3-4.3,3.3l-1-2.8c0,0,1.5-3,1.3-4c-0.2-0.9,0.4-2.7,0.9-3.2"/>
	<path class="st0" d="M33,33.5c0,0-2,5.9,0.1,7.8c2.1,1.9,5.2,1.6,5.2,1.6l0-3c0,0-2.4-2.4-2.6-3.3c-0.1-1-1.2-2.4-2-2.7"/>
	<path class="st0" d="M30.1,41.1c0,0,2.8,5.5,5.6,5.4c2.8-0.2,4.8-2.6,4.8-2.6l-2.2-2.1c0,0-3.4,0.1-4.2-0.5
		c-0.8-0.6-2.6-0.8-3.3-0.5"/>
	<path class="st0" d="M41.4,19.4c0,0,0.3,6.2-2.2,7.5c-2.5,1.2-5.4,0.1-5.4,0.1l0.9-2.9c0,0,3-1.6,3.4-2.5c0.4-0.9,1.8-1.9,2.6-2.1"
		/>
	<path class="st0" d="M25.3,25.8c0,0,2.8,5.5,5.6,5.4c2.8-0.2,4.8-2.6,4.8-2.6l-2.2-2.1c0,0-3.4,0.1-4.2-0.5
		c-0.8-0.6-2.6-0.8-3.3-0.5"/>
	<path class="st0" d="M42.8,55.9c0,0-2,5.9,0.1,7.8c2.1,1.9,5.2,1.6,5.2,1.6l0-3c0,0-2.4-2.4-2.6-3.3c-0.1-1-1.2-2.4-2-2.7"/>
	<path class="st1" d="M81.7,67.3c0,0,10.2,18.4-7.3,46.7c0,0-10.2,18.7-14,28.1c-3.8,9.3-6.1,12.3-8.4,18.7
		c-1.8,5.1-0.1,10.5-0.1,10.5s-5.4-11.1,3-33.2c0,0,8.8-30.4,9.6-35.7"/>
	<path class="st1" d="M49.4,104.8c0,0,5.7,20.4,2.8,41.4"/>
	<path class="st1" d="M50,94.3c0,0,6.9,28.4,2.8,43.9"/>
	<path class="st1" d="M31.1,19c0,0,6.6,13.7,7.8,21.1l8.7,26.6l4.3,13.7c0,0,8.9,24.2,9.1,34.7"/>
	<path class="st1" d="M94.7,81.9c0,0-13.7,7.8-22.3,18.2c0,0-23.6,21.1-22.1,63.5"/>
	<path class="st2" d="M81.6,67.8c0,0-1.8-3.5-0.7-2c2,2.8,0.9,1.9,1.1,2.1C82.2,68.1,81.6,67.8,81.6,67.8z"/>
	<path class="st0" d="M58.9,85.7c0,0,0.1-0.5,0.4-2.6c0,0-1.5,1.5-1.7,1.8"/>
	<path class="st3" d="M64.5,103l0.8-4.6l-0.2,0.2c-1.2,4.3-1.2,4.6-1.3,5.3"/>
	<path class="st0" d="M48.8,105.4c0,0-0.3-0.9-0.5-2.4c0,0,1.9,1.2,1.8,1.6"/>
	<path class="st3" d="M50.5,95.3c0,0-0.6-2.7-1.2-3.1c0,0,0.4,2.5,0.6,3"/>
	<line class="st4" x1="43.9" y1="148.9" x2="44.5" y2="154.3"/>
	<polyline class="st0" points="8.5,105.9 6.8,105.2 7.6,107.1 	"/>
</g>
<polygon class="st0" points="94.3,81.2 95.3,80.6 95.3,82.4 95.1,82.5 "/>
</svg>
